<svg width="60" height="54" viewBox="0 0 60 54" fill="none" xmlns="http://www.w3.org/2000/svg">
<path d="M20.77 0.0546303C17.3429 0.305393 15.2846 0.827812 12.8083 2.07117C7.61548 4.68328 3.15401 10.5135 1.2315 17.19C-0.043202 21.6097 -0.346206 26.7503 0.40608 31.2954C1.50316 37.951 4.70038 44.1574 8.98422 47.9397C12.4426 50.9906 16.3086 52.6206 21.679 53.3102C23.7583 53.5818 30.9572 53.5714 32.9215 53.3102C33.6843 53.2057 34.4992 53.049 34.7395 52.9654C34.9694 52.8922 35.2097 52.8504 35.2829 52.8922C35.3456 52.934 35.3351 52.8818 35.2515 52.7877C35.1261 52.631 35.1366 52.6101 35.3038 52.5997C35.4396 52.5997 35.4605 52.5788 35.356 52.537C35.2724 52.5056 35.8157 52.2758 36.5576 52.0355C42.3251 50.1652 46.588 46.9575 49.524 42.2766C49.8375 41.7856 50.0465 41.3676 49.9942 41.3467C49.7017 41.2527 47.5179 42.2453 46.6298 42.8722C46.4313 43.008 46.4 43.0185 46.4731 42.8931C46.7761 42.3811 48.1344 40.5004 48.8031 39.6541C49.6494 38.5988 51.7182 36.4151 51.8749 36.4151C51.9272 36.4151 52.0212 36.5718 52.0839 36.7494L52.2093 37.0942L52.3451 36.5718C53.1392 33.4791 53.4213 31.4625 53.4944 28.1608C53.5258 26.6876 53.5049 25.392 53.4526 25.2562C53.3586 25.0159 53.3586 25.0159 52.8884 25.4338C52.3451 25.904 51.2167 27.3041 50.7883 28.0355C50.4435 28.631 50.4331 28.537 50.7152 27.0011C50.9868 25.4652 51.3525 24.0337 51.8227 22.6441C52.3347 21.1186 52.3033 21.15 52.6377 21.7769C52.8048 22.0694 52.9511 22.2993 52.9616 22.2784C53.0034 22.2366 52.6168 20.7425 52.2511 19.5409C51.4257 16.8139 49.942 13.6585 48.4897 11.527C48.2702 11.1926 48.0508 10.8165 47.9986 10.6911C47.9254 10.4926 47.8627 10.5866 47.6329 11.3285C47.4762 11.8195 47.2881 12.5718 47.2149 13.0002C47.1418 13.439 47.0478 13.7211 47.0164 13.6376C46.4836 12.0807 45.9507 10.618 45.3551 9.0925C44.6446 7.26403 44.6028 7.1909 43.9759 6.57444C42.6072 5.22659 40.0369 3.53395 37.9786 2.61449C35.3142 1.43382 31.8035 0.59795 27.9272 0.211357C25.9002 0.0128365 22.4209 -0.0603027 20.77 0.0546303ZM22.2955 4.64148C24.9807 5.25794 27.2167 6.39682 29.4318 8.28798C30.9154 9.55223 32.7439 11.8091 33.7783 13.6585C34.2171 14.4525 34.1022 14.4421 33.6216 13.6376C32.5976 11.9449 30.7169 9.89703 29.087 8.67457C28.0735 7.91183 26.2032 6.90879 24.9389 6.44905C22.1492 5.41467 18.8789 5.33108 16.0578 6.21919C13.6547 6.98193 11.5232 8.30887 9.53799 10.2941C6.48705 13.345 4.58544 17.1691 3.71822 21.9963C3.47791 23.3441 3.44657 23.7934 3.43612 26.0712C3.42567 28.9445 3.55105 30.0311 4.15706 32.3925C5.01383 35.7255 6.59154 38.7973 8.69167 41.19C11.0426 43.8753 13.9054 45.5574 17.3847 46.3097C18.7117 46.5918 21.7626 46.5709 23.1418 46.2679C25.8793 45.6515 28.1257 44.4917 30.4348 42.5065L31.2184 41.8274L30.3303 42.6737C28.0944 44.8156 25.2315 46.3202 22.1388 46.9889C20.6237 47.3128 17.7818 47.3128 16.2563 46.9889C11.2829 45.9231 7.12441 42.5901 4.49141 37.554C1.39868 31.6715 0.886706 24.2427 3.12267 17.6811C4.31378 14.2018 6.04822 11.4538 8.59763 9.00891C11.262 6.44905 14.3443 4.93404 17.949 4.40117C18.7012 4.28624 21.4178 4.44296 22.2955 4.64148ZM30.09 5.47736C30.7483 5.72812 31.1766 5.80125 32.3155 5.88484C33.1618 5.93708 33.841 6.04157 33.9873 6.12516C34.2171 6.25054 34.0604 6.28188 32.4827 6.34457L30.7169 6.41771L29.9333 5.80125C29.5049 5.45646 29.181 5.17435 29.2123 5.17435C29.2437 5.17435 29.6407 5.31018 30.09 5.47736ZM33.8828 7.64017C34.1126 7.80735 35.0217 8.4447 35.8889 9.05071C36.7561 9.65672 37.592 10.3045 37.7382 10.503C37.895 10.712 37.9472 10.8269 37.8532 10.7851C33.9768 9.12385 34.3216 9.31192 33.4126 8.37156C32.7961 7.74466 32.4618 7.48345 32.1588 7.38941C31.7722 7.28493 31.8035 7.27448 32.5976 7.30582C33.3499 7.32672 33.5066 7.36852 33.8828 7.64017ZM42.2624 10.8374C44.9685 14.4421 46.6089 18.5379 47.3717 23.574C47.5597 24.7965 47.6015 25.5487 47.6015 27.5862C47.612 30.3028 47.5179 31.3372 47.0478 33.6985C46.0134 38.8809 43.9028 43.0185 40.413 46.7068C39.7548 47.3964 39.7652 47.3859 40.6116 46.3515C44.0491 42.1617 45.982 37.8361 46.8493 32.3925C47.1314 30.564 47.2463 26.6145 47.0478 24.7442C46.4 18.2976 44.1222 13.0524 39.8593 8.20439L38.9816 7.21179L40.1832 8.43425C40.8414 9.10295 41.7818 10.1791 42.2624 10.8374ZM23.2254 7.92228C27.6973 9.0925 31.2393 12.133 33.4544 16.7198C36.5367 23.0725 36.3068 30.8252 32.8693 36.8226C32.0334 38.2749 31.2811 39.2466 30.0273 40.49C27.9167 42.5901 25.5449 43.8648 22.7239 44.429C21.6163 44.6484 19.2341 44.6693 18.1057 44.4708C17.2698 44.3245 15.3891 43.7603 15.3891 43.6558C15.3891 43.6245 15.6817 43.2901 16.0473 42.9036C18.1057 40.7198 19.3908 38.2645 20.1431 35.0986C20.6864 32.8417 20.8745 29.5714 20.6029 27.2414C20.4566 26.0294 20.3103 25.6532 20.2998 26.51C20.2998 27.3459 20.0282 29.3206 19.7147 30.8147C19.2132 33.1656 18.137 35.9867 17.134 37.5435C16.1205 39.1003 14.4592 40.5631 12.777 41.3676L12.0143 41.7333L11.4187 41.2109C11.0948 40.9288 10.4992 40.3123 10.1022 39.8526C5.49445 34.4717 4.03168 26.3637 6.40347 19.2588C8.4409 13.1465 13.0069 8.74771 18.346 7.72376C19.5476 7.4939 21.982 7.59838 23.2254 7.92228ZM36.7874 11.1508L37.8741 11.5897L38.9712 12.9166C41.6982 16.2183 42.4505 17.3363 42.6176 18.2871L42.6803 18.705L42.3355 18.3811C41.9072 17.9945 39.6712 16.2183 38.6055 15.4242C38.083 15.0272 37.7069 14.6511 37.3934 14.1704C37.1427 13.7943 36.5262 12.8435 36.0143 12.0703C35.5023 11.2971 35.0425 10.5971 35.0008 10.5239C34.9381 10.4299 35.0217 10.4299 35.3142 10.5553C35.5336 10.6493 36.2023 10.921 36.7874 11.1508ZM34.2798 14.6302C34.2485 14.6615 34.1858 14.6093 34.1544 14.5048C34.0917 14.3585 34.1022 14.3481 34.2067 14.4421C34.2798 14.5152 34.3112 14.5988 34.2798 14.6302ZM34.4888 15.0481C34.4574 15.0794 34.3947 15.0272 34.3634 14.9227C34.3007 14.7764 34.3112 14.766 34.4156 14.86C34.4888 14.9332 34.5201 15.0168 34.4888 15.0481ZM39.5563 17.3676C40.2459 17.9319 41.1026 18.6737 41.4683 19.0185L42.1266 19.6454L42.9729 22.0276C43.9132 24.692 44.0073 25.0681 44.0177 25.81V26.3324L43.6834 25.81C43.1714 24.9845 42.1893 23.8248 40.8728 22.4665L39.6503 21.2127L39.2637 19.3424C38.8667 17.3885 38.8249 17.2527 38.4069 16.6885C38.2711 16.5109 38.1875 16.3541 38.2293 16.3541C38.2607 16.3541 38.8562 16.8139 39.5563 17.3676ZM41.5833 25.1204C41.8863 25.4965 42.1579 25.9458 42.1893 26.1234C42.2102 26.2906 42.2833 27.3981 42.346 28.5579C42.4505 30.449 42.4923 30.7625 42.7326 31.3581L42.9938 32.0268L42.7639 33.5418L42.5236 35.0568L42.137 34.0746C41.7295 33.0507 41.0713 31.7655 40.5384 31.0028L40.2354 30.5431L40.3085 27.6593C40.3817 24.6084 40.3817 24.6293 39.8906 23.3023C39.807 23.062 40.7787 24.1069 41.5833 25.1204ZM40.9459 34.8374C41.0817 35.1404 41.1967 35.4538 41.1967 35.5165C41.1967 35.5792 41.0295 36.2166 40.8101 36.9166L40.4235 38.2122L40.6429 38.8809C40.8623 39.5392 40.8623 39.581 40.6951 40.281C40.6011 40.6885 40.4862 41.0124 40.4548 41.0124C40.4235 41.0124 40.3085 40.8139 40.1936 40.5631C40.0891 40.3228 39.7234 39.7063 39.3891 39.2048L38.7726 38.2854L39.3577 36.2061C39.6816 35.0672 39.9429 34.0015 39.9429 33.8343C39.9429 33.6776 39.8697 33.2806 39.7861 32.9671C39.7025 32.6537 39.6294 32.3716 39.6294 32.3402C39.6294 32.2566 40.6742 34.2314 40.9459 34.8374ZM38.2502 40.9497C39.0129 42.0677 39.0547 42.1513 38.595 41.6393C38.3025 41.3258 38.0517 41.096 38.0308 41.1169C38.0099 41.1482 37.4039 41.9005 36.6829 42.7886C34.959 44.9201 35.0425 44.7738 35.3665 45.2022C35.6799 45.6306 36.1501 46.4351 36.0038 46.2888C35.8262 46.1112 34.9276 44.847 34.9276 44.7634C34.9276 44.6798 36.3173 42.4752 37.1322 41.2423L37.6442 40.49L37.383 39.884C37.2472 39.5601 37.1845 39.372 37.2576 39.4869C37.3308 39.5914 37.7696 40.2497 38.2502 40.9497ZM34.1335 46.8844C34.4574 47.2814 34.6769 47.5949 34.6246 47.5949C34.5724 47.5949 34.3843 47.4277 34.2171 47.2187L33.9141 46.853L32.3051 48.0755C31.417 48.7442 30.6751 49.3084 30.6542 49.3293C30.6333 49.3502 30.8109 49.6532 31.0513 50.0085C31.2811 50.3637 31.4796 50.6981 31.4796 50.7608C31.4796 50.8234 31.3438 50.6667 31.1766 50.4055C31.0199 50.1547 30.7587 49.8308 30.602 49.695C30.4557 49.5487 30.3303 49.4025 30.3303 49.3607C30.3303 49.3189 31.0199 48.6606 31.8767 47.8979C33.12 46.7695 33.4126 46.456 33.3917 46.247C33.3813 46.1112 33.4126 46.0381 33.4544 46.0903C33.5066 46.1426 33.8096 46.4978 34.1335 46.8844ZM29.4944 51.2414C29.7974 51.5339 29.5571 51.4295 29.2123 51.116L28.9825 50.9175L28.4287 51.2414L27.8749 51.5757L28.3138 51.1787L28.7526 50.7817L28.5959 50.416C28.4392 50.0503 28.4392 50.0503 28.8362 50.5204C29.0556 50.7817 29.3482 51.1056 29.4944 51.2414Z" fill="white"/>
<mask id="mask0_1516_483" style="mask-type:alpha" maskUnits="userSpaceOnUse" x="0" y="0" width="54" height="54">
<path d="M20.77 0.0546303C17.3429 0.305393 15.2846 0.827812 12.8083 2.07117C7.61548 4.68328 3.15401 10.5135 1.2315 17.19C-0.043202 21.6097 -0.346206 26.7503 0.40608 31.2954C1.50316 37.951 4.70038 44.1574 8.98422 47.9397C12.4426 50.9906 16.3086 52.6206 21.679 53.3102C23.7583 53.5818 30.9572 53.5714 32.9215 53.3102C33.6843 53.2057 34.4992 53.049 34.7395 52.9654C34.9694 52.8922 35.2097 52.8504 35.2829 52.8922C35.3456 52.934 35.3351 52.8818 35.2515 52.7877C35.1261 52.631 35.1366 52.6101 35.3038 52.5997C35.4396 52.5997 35.4605 52.5788 35.356 52.537C35.2724 52.5056 35.8157 52.2758 36.5576 52.0355C42.3251 50.1652 46.588 46.9575 49.524 42.2766C49.8375 41.7856 50.0465 41.3676 49.9942 41.3467C49.7017 41.2527 47.5179 42.2453 46.6298 42.8722C46.4313 43.008 46.4 43.0185 46.4731 42.8931C46.7761 42.3811 48.1344 40.5004 48.8031 39.6541C49.6494 38.5988 51.7182 36.4151 51.8749 36.4151C51.9272 36.4151 52.0212 36.5718 52.0839 36.7494L52.2093 37.0942L52.3451 36.5718C53.1392 33.4791 53.4213 31.4625 53.4944 28.1608C53.5258 26.6876 53.5049 25.392 53.4526 25.2562C53.3586 25.0159 53.3586 25.0159 52.8884 25.4338C52.3451 25.904 51.2167 27.3041 50.7883 28.0355C50.4435 28.631 50.4331 28.537 50.7152 27.0011C50.9868 25.4652 51.3525 24.0337 51.8227 22.6441C52.3347 21.1186 52.3033 21.15 52.6377 21.7769C52.8048 22.0694 52.9511 22.2993 52.9616 22.2784C53.0034 22.2366 52.6168 20.7425 52.2511 19.5409C51.4257 16.8139 49.942 13.6585 48.4897 11.527C48.2702 11.1926 48.0508 10.8165 47.9986 10.6911C47.9254 10.4926 47.8627 10.5866 47.6329 11.3285C47.4762 11.8195 47.2881 12.5718 47.2149 13.0002C47.1418 13.439 47.0478 13.7211 47.0164 13.6376C46.4836 12.0807 45.9507 10.618 45.3551 9.0925C44.6446 7.26403 44.6028 7.1909 43.9759 6.57444C42.6072 5.22659 40.0369 3.53395 37.9786 2.61449C35.3142 1.43382 31.8035 0.59795 27.9272 0.211357C25.9002 0.0128365 22.4209 -0.0603027 20.77 0.0546303ZM22.2955 4.64148C24.9807 5.25794 27.2167 6.39682 29.4318 8.28798C30.9154 9.55223 32.7439 11.8091 33.7783 13.6585C34.2171 14.4525 34.1022 14.4421 33.6216 13.6376C32.5976 11.9449 30.7169 9.89703 29.087 8.67457C28.0735 7.91183 26.2032 6.90879 24.9389 6.44905C22.1492 5.41467 18.8789 5.33108 16.0578 6.21919C13.6547 6.98193 11.5232 8.30887 9.53799 10.2941C6.48705 13.345 4.58544 17.1691 3.71822 21.9963C3.47791 23.3441 3.44657 23.7934 3.43612 26.0712C3.42567 28.9445 3.55105 30.0311 4.15706 32.3925C5.01383 35.7255 6.59154 38.7973 8.69167 41.19C11.0426 43.8753 13.9054 45.5574 17.3847 46.3097C18.7117 46.5918 21.7626 46.5709 23.1418 46.2679C25.8793 45.6515 28.1257 44.4917 30.4348 42.5065L31.2184 41.8274L30.3303 42.6737C28.0944 44.8156 25.2315 46.3202 22.1388 46.9889C20.6237 47.3128 17.7818 47.3128 16.2563 46.9889C11.2829 45.9231 7.12441 42.5901 4.49141 37.554C1.39868 31.6715 0.886706 24.2427 3.12267 17.6811C4.31378 14.2018 6.04822 11.4538 8.59763 9.00891C11.262 6.44905 14.3443 4.93404 17.949 4.40117C18.7012 4.28624 21.4178 4.44296 22.2955 4.64148ZM30.09 5.47736C30.7483 5.72812 31.1766 5.80125 32.3155 5.88484C33.1618 5.93708 33.841 6.04157 33.9873 6.12516C34.2171 6.25054 34.0604 6.28188 32.4827 6.34457L30.7169 6.41771L29.9333 5.80125C29.5049 5.45646 29.181 5.17435 29.2123 5.17435C29.2437 5.17435 29.6407 5.31018 30.09 5.47736ZM33.8828 7.64017C34.1126 7.80735 35.0217 8.4447 35.8889 9.05071C36.7561 9.65672 37.592 10.3045 37.7382 10.503C37.895 10.712 37.9472 10.8269 37.8532 10.7851C33.9768 9.12385 34.3216 9.31192 33.4126 8.37156C32.7961 7.74466 32.4618 7.48345 32.1588 7.38941C31.7722 7.28493 31.8035 7.27448 32.5976 7.30582C33.3499 7.32672 33.5066 7.36852 33.8828 7.64017ZM42.2624 10.8374C44.9685 14.4421 46.6089 18.5379 47.3717 23.574C47.5597 24.7965 47.6015 25.5487 47.6015 27.5862C47.612 30.3028 47.5179 31.3372 47.0478 33.6985C46.0134 38.8809 43.9028 43.0185 40.413 46.7068C39.7548 47.3964 39.7652 47.3859 40.6116 46.3515C44.0491 42.1617 45.982 37.8361 46.8493 32.3925C47.1314 30.564 47.2463 26.6145 47.0478 24.7442C46.4 18.2976 44.1222 13.0524 39.8593 8.20439L38.9816 7.21179L40.1832 8.43425C40.8414 9.10295 41.7818 10.1791 42.2624 10.8374ZM23.2254 7.92228C27.6973 9.0925 31.2393 12.133 33.4544 16.7198C36.5367 23.0725 36.3068 30.8252 32.8693 36.8226C32.0334 38.2749 31.2811 39.2466 30.0273 40.49C27.9167 42.5901 25.5449 43.8648 22.7239 44.429C21.6163 44.6484 19.2341 44.6693 18.1057 44.4708C17.2698 44.3245 15.3891 43.7603 15.3891 43.6558C15.3891 43.6245 15.6817 43.2901 16.0473 42.9036C18.1057 40.7198 19.3908 38.2645 20.1431 35.0986C20.6864 32.8417 20.8745 29.5714 20.6029 27.2414C20.4566 26.0294 20.3103 25.6532 20.2998 26.51C20.2998 27.3459 20.0282 29.3206 19.7147 30.8147C19.2132 33.1656 18.137 35.9867 17.134 37.5435C16.1205 39.1003 14.4592 40.5631 12.777 41.3676L12.0143 41.7333L11.4187 41.2109C11.0948 40.9288 10.4992 40.3123 10.1022 39.8526C5.49445 34.4717 4.03168 26.3637 6.40347 19.2588C8.4409 13.1465 13.0069 8.74771 18.346 7.72376C19.5476 7.4939 21.982 7.59838 23.2254 7.92228ZM36.7874 11.1508L37.8741 11.5897L38.9712 12.9166C41.6982 16.2183 42.4505 17.3363 42.6176 18.2871L42.6803 18.705L42.3355 18.3811C41.9072 17.9945 39.6712 16.2183 38.6055 15.4242C38.083 15.0272 37.7069 14.6511 37.3934 14.1704C37.1427 13.7943 36.5262 12.8435 36.0143 12.0703C35.5023 11.2971 35.0425 10.5971 35.0008 10.5239C34.9381 10.4299 35.0217 10.4299 35.3142 10.5553C35.5336 10.6493 36.2023 10.921 36.7874 11.1508ZM34.2798 14.6302C34.2485 14.6615 34.1858 14.6093 34.1544 14.5048C34.0917 14.3585 34.1022 14.3481 34.2067 14.4421C34.2798 14.5152 34.3112 14.5988 34.2798 14.6302ZM34.4888 15.0481C34.4574 15.0794 34.3947 15.0272 34.3634 14.9227C34.3007 14.7764 34.3112 14.766 34.4156 14.86C34.4888 14.9332 34.5201 15.0168 34.4888 15.0481ZM39.5563 17.3676C40.2459 17.9319 41.1026 18.6737 41.4683 19.0185L42.1266 19.6454L42.9729 22.0276C43.9132 24.692 44.0073 25.0681 44.0177 25.81V26.3324L43.6834 25.81C43.1714 24.9845 42.1893 23.8248 40.8728 22.4665L39.6503 21.2127L39.2637 19.3424C38.8667 17.3885 38.8249 17.2527 38.4069 16.6885C38.2711 16.5109 38.1875 16.3541 38.2293 16.3541C38.2607 16.3541 38.8562 16.8139 39.5563 17.3676ZM41.5833 25.1204C41.8863 25.4965 42.1579 25.9458 42.1893 26.1234C42.2102 26.2906 42.2833 27.3981 42.346 28.5579C42.4505 30.449 42.4923 30.7625 42.7326 31.3581L42.9938 32.0268L42.7639 33.5418L42.5236 35.0568L42.137 34.0746C41.7295 33.0507 41.0713 31.7655 40.5384 31.0028L40.2354 30.5431L40.3085 27.6593C40.3817 24.6084 40.3817 24.6293 39.8906 23.3023C39.807 23.062 40.7787 24.1069 41.5833 25.1204ZM40.9459 34.8374C41.0817 35.1404 41.1967 35.4538 41.1967 35.5165C41.1967 35.5792 41.0295 36.2166 40.8101 36.9166L40.4235 38.2122L40.6429 38.8809C40.8623 39.5392 40.8623 39.581 40.6951 40.281C40.6011 40.6885 40.4862 41.0124 40.4548 41.0124C40.4235 41.0124 40.3085 40.8139 40.1936 40.5631C40.0891 40.3228 39.7234 39.7063 39.3891 39.2048L38.7726 38.2854L39.3577 36.2061C39.6816 35.0672 39.9429 34.0015 39.9429 33.8343C39.9429 33.6776 39.8697 33.2806 39.7861 32.9671C39.7025 32.6537 39.6294 32.3716 39.6294 32.3402C39.6294 32.2566 40.6742 34.2314 40.9459 34.8374ZM38.2502 40.9497C39.0129 42.0677 39.0547 42.1513 38.595 41.6393C38.3025 41.3258 38.0517 41.096 38.0308 41.1169C38.0099 41.1482 37.4039 41.9005 36.6829 42.7886C34.959 44.9201 35.0425 44.7738 35.3665 45.2022C35.6799 45.6306 36.1501 46.4351 36.0038 46.2888C35.8262 46.1112 34.9276 44.847 34.9276 44.7634C34.9276 44.6798 36.3173 42.4752 37.1322 41.2423L37.6442 40.49L37.383 39.884C37.2472 39.5601 37.1845 39.372 37.2576 39.4869C37.3308 39.5914 37.7696 40.2497 38.2502 40.9497ZM34.1335 46.8844C34.4574 47.2814 34.6769 47.5949 34.6246 47.5949C34.5724 47.5949 34.3843 47.4277 34.2171 47.2187L33.9141 46.853L32.3051 48.0755C31.417 48.7442 30.6751 49.3084 30.6542 49.3293C30.6333 49.3502 30.8109 49.6532 31.0513 50.0085C31.2811 50.3637 31.4796 50.6981 31.4796 50.7608C31.4796 50.8234 31.3438 50.6667 31.1766 50.4055C31.0199 50.1547 30.7587 49.8308 30.602 49.695C30.4557 49.5487 30.3303 49.4025 30.3303 49.3607C30.3303 49.3189 31.0199 48.6606 31.8767 47.8979C33.12 46.7695 33.4126 46.456 33.3917 46.247C33.3813 46.1112 33.4126 46.0381 33.4544 46.0903C33.5066 46.1426 33.8096 46.4978 34.1335 46.8844ZM29.4944 51.2414C29.7974 51.5339 29.5571 51.4295 29.2123 51.116L28.9825 50.9175L28.4287 51.2414L27.8749 51.5757L28.3138 51.1787L28.7526 50.7817L28.5959 50.416C28.4392 50.0503 28.4392 50.0503 28.8362 50.5204C29.0556 50.7817 29.3482 51.1056 29.4944 51.2414Z" fill="black"/>
</mask>
<g mask="url(#mask0_1516_483)">
<ellipse cx="17.5156" cy="34.5264" rx="8.5" ry="9.5" fill="#60C880"/>
</g>
<path d="M19.976 9.32241C18.6177 10.7852 17.6355 13.0629 17.4161 15.3198C17.3534 15.9363 17.3221 16.0512 17.228 15.9049C17.1653 15.8004 16.8623 15.3302 16.5593 14.8601L15.9951 14.0033L16.0474 15.675C16.0892 17.0856 16.1518 17.5349 16.4131 18.5693C16.7683 19.9275 17.4265 21.4112 18.1684 22.5292C18.6281 23.2188 20.2372 25.0264 20.3939 25.0264C20.4357 25.0264 20.3417 24.3368 20.1849 23.48C19.7461 21.1605 19.5685 19.2171 19.5685 16.908C19.5685 14.5571 19.7461 12.739 20.2058 10.4613C20.373 9.60452 20.4984 8.88358 20.4775 8.86268C20.4566 8.84178 20.2267 9.05075 19.976 9.32241Z" fill="#60C880"/>
<path d="M22.5354 16.4899C22.5249 18.4438 22.3786 19.5617 21.8667 21.5887C21.6995 22.2574 21.5323 22.8948 21.4905 22.9993C21.3651 23.4172 21.7831 22.7903 22.1279 22.0485C22.7757 20.6693 23.0578 18.3393 22.8175 16.2914C22.619 14.557 22.5458 14.5987 22.5354 16.4899Z" fill="#60C880"/>
<path d="M30.769 20.032C30.4033 20.6066 28.9824 21.9336 27.8226 22.759C26.736 23.5531 26.5792 23.5949 26.5688 23.1038C26.5688 22.9053 26.0568 21.6828 25.9732 21.6828C25.8583 21.6828 23.5805 24.3576 22.87 25.3189C22.3058 26.1025 22.0969 26.6458 21.773 28.2862C21.6058 29.1116 21.4804 29.7908 21.5013 29.8117C21.5118 29.8221 21.7939 29.5818 22.1178 29.2684C24.0716 27.3563 25.7016 26.0712 28.4808 24.2531C29.4734 23.6053 30.4242 22.9053 30.6019 22.7068C31.1034 22.1321 31.3019 21.5052 31.2497 20.6484C31.1974 19.729 31.0616 19.5513 30.769 20.032Z" fill="#60C880"/>
<path d="M7.50084 20.1155C8.06506 21.9858 9.77859 25.0576 11.1996 26.7503L11.722 27.3772L11.2518 27.4503C11.0011 27.5026 10.5831 27.5653 10.3115 27.607L9.84128 27.6906L10.7607 28.6937C12.3698 30.4386 14.0102 31.7446 15.6193 32.5596C16.3297 32.9148 17.9806 33.4895 18.3045 33.4895C18.6075 33.4895 18.5866 33.3955 18.1164 32.4656C17.2597 30.7625 15.2118 27.9205 13.1952 25.6219C11.1055 23.2396 7.34412 19.6036 7.50084 20.1155Z" fill="#60C880"/>
<path d="M11.4188 20.1366C11.5024 20.2202 11.9621 20.6068 12.4323 20.9829C15.2951 23.3442 17.5311 26.74 18.1058 29.6237C18.1685 29.9372 18.2834 30.8044 18.367 31.5462C18.4506 32.2776 18.5342 32.9045 18.555 32.9359C18.6804 33.0508 18.8894 31.3477 18.8894 30.3029C18.8894 29.3312 18.8476 29.0177 18.5968 28.2654C17.646 25.3712 15.1071 22.3934 11.889 20.3769C11.5442 20.1575 11.3352 20.053 11.4188 20.1366Z" fill="#60C880"/>
<path d="M30.9573 24.8906C29.3169 26.2802 26.9765 27.5863 23.5703 29.0072C22.6926 29.3729 21.9717 29.6968 21.9717 29.7386C21.9717 29.8745 23.727 30.073 24.542 30.0207C25.2316 29.9789 25.4928 29.9058 26.151 29.5715C28.2616 28.5057 30.1005 26.8131 31.417 24.7338C31.5633 24.4935 31.6783 24.295 31.6678 24.3055C31.6469 24.3055 31.3335 24.5667 30.9573 24.8906Z" fill="#60C880"/>
<path d="M9.47521 32.6015C8.28409 32.8105 8.25274 32.8627 9.08862 33.3538C9.47521 33.5836 10.0499 33.9075 10.3529 34.0538C10.8753 34.315 10.9066 34.3464 10.7186 34.4822C10.5514 34.6076 10.6141 34.6703 11.4918 35.0778L12.4426 35.5375L11.7216 36.1017C11.335 36.4152 11.0111 36.7077 11.0007 36.7391C11.0007 36.8226 12.4426 37.4809 13.1948 37.7317C13.6546 37.8884 14.0725 37.9302 15.2532 37.9302C16.0682 37.9302 16.7682 37.8884 16.81 37.8466C16.9563 37.7003 14.4904 35.4017 12.9441 34.2419C12.547 33.9389 12.2649 33.6986 12.3067 33.6986C12.3485 33.6986 12.8187 33.9075 13.3411 34.1687C14.3546 34.6703 15.6084 35.5584 16.4652 36.3838L16.9876 36.8853L16.9249 36.3107C16.7786 35.1091 15.8069 33.7613 14.5113 32.9776C14.1874 32.7791 13.9053 32.6433 13.874 32.6642C13.8531 32.6955 14.1874 32.9881 14.6158 33.3329C15.4099 33.9598 16.1935 34.921 16.4861 35.6106C16.7473 36.248 16.6637 36.248 16.0055 35.642C15.3263 35.0151 14.177 34.2001 13.4038 33.8031C13.1426 33.6672 12.4739 33.406 11.9097 33.2284C10.8439 32.8731 10.7917 32.7582 11.7112 32.7582C12.5157 32.7582 13.4247 32.9463 13.9576 33.2179C14.4487 33.4792 14.6054 33.4478 14.271 33.1553C13.6023 32.5701 11.1783 32.288 9.47521 32.6015Z" fill="#60C880"/>
<path d="M23.3194 32.9984C22.4521 33.291 21.867 33.688 21.2506 34.409C20.8222 34.8896 20.0908 36.0389 20.0908 36.227C20.0908 36.2583 20.7073 36.0807 21.4491 35.8299C22.2014 35.5792 23.288 35.2762 23.8731 35.1612C24.8344 34.9627 27.0808 34.7015 27.1644 34.7851C27.1853 34.7956 26.7046 34.9105 26.1091 35.0359C24.7821 35.318 23.0999 35.8717 21.773 36.4568C20.7386 36.9166 19.8818 37.4077 19.8818 37.5435C19.8923 37.8151 21.8461 38.8182 22.9119 39.0898C23.6328 39.2779 25.6389 39.3197 26.1718 39.163L26.4643 39.0794L25.8897 38.3585C25.5762 37.9614 25.315 37.6271 25.315 37.6062C25.315 37.5957 25.6598 37.6062 26.0777 37.6375C26.7151 37.6898 28.6272 37.5226 28.7421 37.4077C28.763 37.3868 28.7003 37.2509 28.6063 37.1046C28.4286 36.833 28.4286 36.833 28.7212 36.833C29.2645 36.833 30.7482 36.4255 31.5214 36.0598C32.3886 35.6628 32.5871 35.4747 32.1378 35.4747C31.6781 35.4747 30.6019 35.1299 29.2018 34.5343C27.8853 33.991 27.248 33.7716 26.5375 33.6462L26.1404 33.5835L26.3598 33.291C26.5584 33.0089 26.5584 32.988 26.3807 32.9148C26.2867 32.873 25.712 32.8208 25.106 32.7895C24.1552 32.7581 23.9149 32.779 23.3194 32.9984Z" fill="#60C880"/>
<path d="M46.5676 4.33853C46.6094 4.65198 46.6825 5.50875 46.7243 6.22969C46.8183 7.5044 47.1004 8.87314 47.2572 8.7791C47.4243 8.67462 47.8109 7.06557 47.8214 6.47001C47.8214 5.94759 47.7482 5.69682 47.487 5.16396C47.299 4.79826 47.0064 4.32808 46.8288 4.12956L46.5049 3.76387L46.5676 4.33853Z" fill="white"/>
<path d="M51.1327 9.40586C51.1223 9.65662 51.2059 9.97007 51.3521 10.1895C51.6656 10.7119 51.6969 10.4298 51.3939 9.65662L51.1327 8.98792V9.40586Z" fill="white"/>
<path d="M54.5498 9.89714C54.7692 10.2628 55.229 11.1614 55.5633 11.9137C56.2007 13.3033 56.7649 14.0556 57.2664 14.181C57.4754 14.2332 57.4963 14.2019 57.4963 13.8884C57.4963 13.2511 57.1724 11.945 56.8694 11.3286C56.5037 10.6181 55.8036 9.98073 54.926 9.56279C54.5707 9.38517 54.2573 9.24934 54.2259 9.24934C54.1946 9.24934 54.3408 9.54189 54.5498 9.89714Z" fill="white"/>
<path d="M53.589 15.048C53.9651 16.4376 54.2577 17.1272 54.5189 17.2213C54.6442 17.2735 54.6756 17.1795 54.6756 16.6362C54.6756 15.7167 54.4353 14.9853 53.9129 14.348C53.6725 14.0554 53.4218 13.7942 53.3591 13.7733C53.2964 13.7524 53.3904 14.2957 53.589 15.048Z" fill="white"/>
<path d="M59.1783 16.0721C59.0425 16.4796 58.729 17.3154 58.4887 17.9215C57.7887 19.6245 57.6006 20.3455 57.6006 21.2649C57.6006 22.0486 57.7782 23.1561 57.9036 23.1352C58.0081 23.1248 59.6903 19.5723 59.8574 19.029C60.0664 18.2871 60.0455 17.0333 59.7948 16.2393C59.4813 15.2362 59.45 15.2258 59.1783 16.0721Z" fill="white"/>
<path d="M55.0933 20.3977C55.0933 20.6798 54.9784 21.9545 54.8321 23.2397C54.5187 26.0921 54.5082 26.7817 54.7799 27.6698C54.9575 28.2236 55.6993 29.4669 55.8038 29.3729C55.8769 29.2997 56.4412 26.4682 56.5039 25.8622C56.5874 25.089 56.4307 23.8352 56.1277 22.6546C55.8038 21.4112 55.2918 19.9066 55.1874 19.9066C55.1351 19.9066 55.0933 20.126 55.0933 20.3977Z" fill="white"/>
<path d="M56.6607 31.2954C55.9816 32.2358 55.689 32.8418 55.7413 33.2075C55.7935 33.5209 56.6921 32.6642 57.016 31.9955C57.2354 31.5357 57.4966 30.3551 57.3817 30.3551C57.3608 30.3551 57.0369 30.7835 56.6607 31.2954Z" fill="white"/>
<path d="M55.7308 35.6105C55.595 35.8508 55.1353 36.53 54.7069 37.1151C53.8083 38.3584 53.4635 39.0585 53.359 39.8526C53.2754 40.4899 53.2128 40.4899 54.1636 39.8526C55.501 38.954 56.0338 37.9614 56.1174 36.227C56.1383 35.6418 56.1174 35.1612 56.0756 35.1612C56.0234 35.1612 55.8666 35.3597 55.7308 35.6105Z" fill="white"/>
</svg>
