<svg width="40" height="40" viewBox="0 0 40 40" fill="none" xmlns="http://www.w3.org/2000/svg">
<circle cx="20" cy="20" r="20" fill="#60C880"/>
<path d="M18.7025 26H15.5885L12.4745 22.706H10.7645V26H8.51452V15.434H14.7245C16.2965 15.434 17.3645 15.704 17.9285 16.244C18.4925 16.772 18.7745 17.654 18.7745 18.89V19.268C18.7745 20.372 18.5345 21.194 18.0545 21.734C17.5865 22.274 16.7285 22.592 15.4805 22.688L18.7025 26ZM14.7245 17.378H10.7645V20.78H14.7245C15.4205 20.78 15.8945 20.684 16.1465 20.492C16.3985 20.3 16.5245 19.904 16.5245 19.304V18.854C16.5245 18.266 16.3985 17.876 16.1465 17.684C15.8945 17.48 15.4205 17.378 14.7245 17.378ZM29.2418 15.434H31.4918V22.238C31.4918 23.618 31.2098 24.59 30.6458 25.154C30.0938 25.718 29.0198 26 27.4238 26H24.9758C23.3918 26 22.3178 25.718 21.7538 25.154C21.2018 24.59 20.9258 23.618 20.9258 22.238V15.434H23.1758V22.292C23.1758 22.964 23.3018 23.426 23.5538 23.678C23.8178 23.93 24.2918 24.056 24.9758 24.056H27.4238C28.1078 24.056 28.5818 23.93 28.8458 23.678C29.1098 23.426 29.2418 22.964 29.2418 22.292V15.434Z" fill="white"/>
</svg>
