<svg width="22" height="22" viewBox="0 0 22 22" fill="none" xmlns="http://www.w3.org/2000/svg">
<path fill-rule="evenodd" clip-rule="evenodd" d="M2.00028 9.77778C2.00028 14.0733 5.48251 17.5556 9.77806 17.5556C11.5681 17.5556 13.217 16.9508 14.5314 15.9345L15.9348 14.5311C16.9511 13.2167 17.5558 11.5678 17.5558 9.77778C17.5558 5.48223 14.0736 2 9.77806 2C5.48251 2 2.00028 5.48223 2.00028 9.77778ZM17.5022 15.7737C18.7894 14.1179 19.5558 12.0374 19.5558 9.77778C19.5558 4.37766 15.1782 0 9.77806 0C4.37794 0 0.00028038 4.37766 0.00028038 9.77778C0.00028038 15.1779 4.37794 19.5556 9.77806 19.5556C12.0375 19.5556 14.118 18.7892 15.7737 17.5021L20.2715 21.9999L22 20.2715L17.5022 15.7737Z" fill="white"/>
</svg>
